<svg xmlns="http://www.w3.org/2000/svg" width="1240" height="1240"><path d="M256.861 185.91c-2.333 1.886-2.367 2.19-2.861 25.57-.275 13.013-.175 24.536.223 25.605.398 1.069 1.913 2.397 3.368 2.95 1.626.618 18.427.981 43.651.943 22.553-.035 41.288.219 41.632.563.344.344.715 56.215.823 124.156.109 67.942.483 123.817.832 124.167.903.905 51.524 1.441 60.209.637l7.239-.669.261-123.833c.144-68.108.562-124.133.929-124.499.366-.367 19.105-.612 41.64-.545 36.435.108 41.151-.056 42.583-1.488 1.395-1.395 1.61-4.991 1.61-26.967 0-21.719-.225-25.583-1.571-26.929-1.411-1.41-13.661-1.571-119.89-1.571-114.958 0-118.384.054-120.678 1.91M584 264.125c-2.475.498-7.373 1.323-10.884 1.834-11.043 1.606-34.647 12.51-43.261 19.985-13.51 11.723-29.654 34.753-33.329 47.543-.946 3.293-2.403 7.308-3.238 8.923-3.314 6.409-5.055 36.492-3.247 56.09 1.421 15.393 7.747 35.417 14.424 45.653 6.038 9.258 14.321 19.459 20.175 24.847 5.815 5.353 19.091 14 21.494 14 .657 0 4.383 1.508 8.28 3.352 3.898 1.843 8.886 3.681 11.086 4.084 2.2.404 7.825 1.885 12.5 3.291 7.712 2.321 10.123 2.559 26 2.567 15.038.007 18.555-.299 25-2.173 4.125-1.199 10.2-2.782 13.5-3.517 6.905-1.539 20.321-7.628 25.477-11.563 1.937-1.479 6.014-4.548 9.058-6.82 8.964-6.693 17.918-16.306 23.091-24.793 7.152-11.734 13.659-25.815 14.812-32.048.558-3.023 1.331-6.006 1.716-6.63 3.384-5.474 3.33-54.112-.065-59.607-.379-.613-1.094-3.6-1.588-6.638-.773-4.749-6.307-17.254-12.872-29.084-3.25-5.858-8.976-12.97-14.841-18.434C679.798 288.01 670.02 280 668.992 280c-.435 0-3.131-1.575-5.992-3.5s-5.879-3.5-6.708-3.5c-.828 0-4.271-1.32-7.651-2.933-3.379-1.613-8.619-3.24-11.643-3.616-3.024-.377-8.198-1.3-11.498-2.053-6.806-1.552-34.247-1.733-41.5-.273m281 .375c-1.925.741-4.969 1.382-6.764 1.424-4.08.095-21.077 8.213-24.235 11.575-1.292 1.376-2.779 2.501-3.305 2.501-.525 0-2.847 1.913-5.16 4.25-8.09 8.175-7.713 8.366-7.353-3.726.286-9.626.126-10.82-1.624-12.102-1.566-1.147-7.221-1.422-29.275-1.422H759.95l-.975 2.565c-1.192 3.135-1.331 301.326-.141 303.2.624.984 7.554 1.206 31.234 1l30.432-.265.259-51.25c.162-32.091.62-51.25 1.224-51.25.531 0 4.015 2.597 7.741 5.771 9.339 7.954 19.404 14.114 23.198 14.198.781.017 4.311 1.187 7.843 2.6 5.488 2.196 8.48 2.646 20.578 3.099 15.04.562 13.943.749 31.157-5.294 9.962-3.497 18.984-9.614 32.26-21.874 11.166-10.311 16.575-18.969 23.751-38.016 5.341-14.174 6.406-22.759 6.534-52.67.124-29.144-1.182-40.954-5.604-50.685-1.343-2.954-2.441-5.806-2.441-6.338 0-.531-2.138-5.295-4.75-10.585-3.973-8.044-6.223-11.102-13.75-18.684-9.753-9.824-19.078-17.393-24.546-19.923-1.9-.88-5.437-2.724-7.861-4.099-2.424-1.375-5.405-2.5-6.625-2.5-1.219 0-4.13-.675-6.468-1.5-5.623-1.984-32.849-1.984-38 0m-7.176 50.157c-5.498.68-18.254 9.679-24.779 17.479-5.033 6.019-5.839 7.679-8.736 17.997-3.098 11.034-3.185 11.879-2.957 28.867.229 17.127.312 17.74 3.893 28.764 4.14 12.744 9.074 20.214 17.696 26.789 2.783 2.122 5.059 4.185 5.059 4.584 0 1.18 16 5.863 20.03 5.863 5.367 0 16.836-4.018 21.411-7.5 5.463-4.159 13.414-12.593 14.14-15 .331-1.1 2.024-5.6 3.761-10l3.158-8v-50l-3.309-8c-1.82-4.4-4.07-9.497-5-11.327-1.913-3.763-9.27-10.842-17.103-16.456-5.038-3.611-5.694-3.8-14.433-4.149-5.035-.201-10.809-.161-12.831.089m-265.033 1.331c-1.489.449-3.964 1.682-5.5 2.74-1.535 1.057-4.225 2.494-5.977 3.192-1.753.698-6.267 4.302-10.033 8.009-5.936 5.843-7.494 8.191-11.709 17.655L554.71 358.5l-.079 21c-.081 21.565-.057 21.731 4.162 29 .639 1.1 1.621 3.847 2.183 6.105 2.241 8.994 20.817 24.909 31.823 27.262 10.335 2.21 26.584.682 30.701-2.886 1.1-.954 3.929-2.931 6.287-4.393 7.911-4.908 12.03-9.515 16.59-18.557 2.436-4.831 4.993-11.427 5.681-14.657 1.475-6.929 1.398-37.336-.115-44.936-2.79-14.026-15.364-29.639-30.118-37.4-7.436-3.912-7.967-4.035-17-3.952-5.129.047-10.544.453-12.034.902m20.263 307.763l-442.447.251-2.553 2.446c-1.405 1.345-4.129 3.113-6.054 3.927-4.27 1.808-12.039 9.693-14.901 15.125-1.159 2.2-3.118 5.271-4.353 6.823l-2.246 2.824V1146.5l4.66 7c6.73 10.109 9.949 12.841 26.2 22.237 1.693.979 95.63 1.188 449.787 1l447.647-.237 4.045-3.25c2.224-1.787 4.48-3.25 5.013-3.25 2.459 0 11.178-8.41 16.153-15.579l5.495-7.921V655.47l-3-4.709c-1.65-2.591-4.308-6.801-5.908-9.357-2.865-4.58-4.165-5.659-16.135-13.39-5.176-3.343-6.971-3.947-12.5-4.209-3.551-.168-205.558-.192-448.903-.054M239.607 739.582c-.334.87-.607 69.447-.607 152.393 0 136.597.149 150.868 1.582 151.418 2.054.788 59.219.767 62.168-.023l2.25-.603v-64.884c0-35.685.337-64.898.75-64.916 10.815-.474 112.419-.132 112.931.381.403.402.627 29.34.498 64.306-.173 46.758.069 63.94.916 64.96 1.565 1.886 61.829 2.062 63.705.186.923-.923 1.2-35.773 1.2-150.777 0-133.761-.165-149.813-1.557-151.8-1.55-2.214-1.675-2.223-31.965-2.223-27.941 0-30.483.142-31.332 1.75-.538 1.02-.866 25.453-.785 58.596.077 31.265-.208 57.06-.633 57.322-.424.262-26.074.496-57 .521l-56.228.043-.5-57.866c-.275-31.826-.864-58.428-1.309-59.116-.619-.956-8.174-1.25-32.143-1.25-27.65 0-31.405.186-31.941 1.582m557 0c-.334.87-.607 69.447-.607 152.393 0 136.597.149 150.868 1.582 151.418.87.334 13.64.607 28.377.607 22.572 0 26.992-.236 28.038-1.497.922-1.11 1.057-4.209.526-12.005-.678-9.95-.618-10.474 1.13-9.85 1.016.363 4.616 3.403 8.001 6.756 7.803 7.728 18.174 13.63 31.986 18.202 10.491 3.472 11.387 3.598 26.36 3.701 15.17.104 15.699.035 24.856-3.236 5.145-1.839 12.756-5.419 16.912-7.957 8.421-5.142 22.246-16.816 26.935-22.744 8.104-10.246 14.935-25.556 19.545-43.805 2.89-11.443 3.071-13.342 3.512-36.843l.464-24.778-3.211-14.722c-5.618-25.758-13.388-40.703-28.695-55.19-17.522-16.583-36.327-23.455-64.318-23.506-22.099-.04-30.318 2.844-50.41 17.69-4.35 3.214-8.333 5.703-8.851 5.53-1.004-.334-1.124-83.768-.131-91.746.307-2.475.083-5.737-.5-7.25L857.05 738h-29.918c-26.359 0-29.99.188-30.525 1.582m-255.94 82.085c-.367.366-.663 37.379-.659 82.25l.008 81.583 2.944 11.873c3.075 12.397 5.265 16.881 14.161 28.996 3.78 5.149 6.451 7.505 12.589 11.108 4.284 2.515 9.815 5.205 12.29 5.977 2.475.772 7.2 2.379 10.5 3.572 5.238 1.893 8.031 2.162 22 2.125 15.306-.041 16.477-.19 27.013-3.441 14.128-4.359 25.113-10.424 34.296-18.936 4.021-3.725 7.765-6.774 8.322-6.774.662 0 .728 1.995.191 5.75-.452 3.162-.818 7.927-.812 10.588.015 7.746-.326 7.662 31.074 7.662 24.328 0 27.269-.174 27.834-1.646 1.148-2.993.557-218.68-.604-220.078-1.567-1.888-59.094-1.848-60.663.043-.758.913-1.227 21.429-1.524 66.75-.235 35.987-.66 67.906-.943 70.931-1.088 11.644-7.331 23.339-16.153 30.263-5.713 4.484-21.423 10.737-26.976 10.737-1.441 0-6.17-1.369-10.509-3.043-12.939-4.989-19.46-14.458-21.319-30.957-.527-4.675-1.118-38.854-1.314-75.954-.196-37.1-.58-68.038-.853-68.75-.392-1.021-6.832-1.296-30.362-1.296-16.426 0-30.165.3-30.531.667m350.731 46.162c-5.93 2.05-17.419 10.837-21.458 16.412-5.561 7.678-9.096 18.24-10.115 30.224-1.022 12.027-.269 35.369 1.372 42.535 4.602 20.089 23.587 39.647 40.421 41.641 3.8.45 7.104.01 12.96-1.729 6.532-1.939 9.026-3.336 14.755-8.268 17.34-14.924 22.355-34.746 18.882-74.644-.993-11.413-2.404-16.069-7.786-25.693-4.454-7.964-14.95-17.236-22.864-20.197-7.163-2.68-18.864-2.805-26.167-.281" fill="undefined" fill-rule="evenodd"/></svg>