<svg xmlns="http://www.w3.org/2000/svg" width="1240" height="1240"><path d="M146 65.5V99h116.994l.253 164.25.253 164.25h79l.246-163c.135-89.65.247-163.562.25-164.25.003-.986 12.373-1.25 58.504-1.25H460V32H146v33.5m424 71.1c-22.116 4.424-44.865 13.803-60.5 24.945-8.209 5.849-22.022 19.588-27.655 27.504-12.941 18.19-23.713 44.362-27.373 66.513-1.955 11.832-2.186 38.593-.448 51.938 4.711 36.178 16.82 63.286 37.609 84.192 9.459 9.512 25.004 21.124 30.63 22.88 1.23.383 2.462 1.009 2.737 1.39.275.381 4.1 2.144 8.5 3.918s8.9 3.612 10 4.083c2.718 1.166 11.229 3.678 15.467 4.565 1.907.4 4.157 1.08 5 1.512 5.975 3.064 45.489 4.448 61.033 2.137 20.82-3.095 43.51-11.562 58.028-21.654 30.931-21.504 50.94-49.848 59.455-84.221 2.721-10.987 5.493-32.782 5.506-43.302.013-10.107-2.857-32.509-5.509-43-5.098-20.165-16.79-43.011-28.147-55-1.824-1.925-3.32-3.8-3.324-4.168-.012-.878-19.301-17.842-24.795-21.805-5.689-4.104-21.46-12.365-27.714-14.518-2.75-.946-5.9-2.115-7-2.597-2.113-.926-6.541-2.05-18-4.568-10.33-2.27-53.348-2.774-63.5-.744m372-.005c-12.335 3.168-29.037 9.895-33.304 13.413-.658.542-3.671 2.79-6.696 4.995-6.924 5.046-19.708 17.615-21.611 21.247-.792 1.512-2.216 2.75-3.165 2.751-1.583.001-1.697-1.551-1.396-19l.328-19.001H806v395h75v-70.5c0-52.992.289-70.5 1.165-70.5.641 0 3.914 2.587 7.274 5.75 13.891 13.075 21.028 18.239 32.561 23.563 15.585 7.194 24.912 9.201 42.5 9.146 15.334-.047 29.201-2.337 39-6.439 15.674-6.562 20.067-9.188 32.237-19.272 29.572-24.506 44.646-58.752 48.247-109.616 2.617-36.961-4.084-75.506-17.557-100.985-6.287-11.89-13.426-21.383-23.326-31.018-15.924-15.497-30.217-23.51-51.195-28.7-8.596-2.127-11.967-2.418-27.111-2.338-11.355.06-19.184.576-22.795 1.504m-6.5 58.356c-1.1.5-3.057.94-4.349.979-5.915.177-19.502 7.613-27.39 14.99-10.332 9.663-17.64 23.878-21.379 41.58-3.342 15.826-2.575 46.29 1.64 65.097 5.62 25.079 22.825 45.603 44.261 52.798 6.395 2.147 9.601 2.605 18.234 2.605 12.585 0 19.634-2.058 29.656-8.657 16.817-11.074 25.635-27.155 29.797-54.343 4.641-30.318 1.473-59.306-8.918-81.59-6.927-14.855-24.127-29.214-39.022-32.575-6.342-1.431-20.133-1.972-22.53-.884m-346 1.716c-1.65.268-3.428.902-3.95 1.41-.522.508-1.872.93-3 .938-11.131.082-34.355 18.655-41.306 33.035-9.145 18.919-11.678 31.923-10.965 56.304.592 20.289 2.915 30.934 9.859 45.19 3.603 7.398 5.957 10.566 13.528 18.212 7.593 7.667 10.596 9.94 17.5 13.243 17.198 8.228 32.772 9.072 51.334 2.782 9.046-3.066 14.146-6.415 23.572-15.48 6.95-6.683 9.347-9.81 12.665-16.522 8.177-16.544 11.263-30.822 11.263-52.11 0-22.051-4.228-39.881-12.964-54.669-6.677-11.302-22.185-24.543-33.036-28.207a779.962 779.962 0 01-8-2.753c-3.669-1.293-21.35-2.21-26.5-1.373M70.365 569.951c-4.07.973-8.701 4.31-11.575 8.339l-2.29 3.21v638.156l2.884 3.781c1.586 2.079 4.736 4.622 7 5.65 4.004 1.818 19.069 1.869 553.616 1.869s549.612-.051 553.616-1.869c2.264-1.028 5.414-3.571 7-5.65l2.884-3.781v-638.47l-3.064-3.843c-1.686-2.114-4.836-4.743-7-5.843-3.921-1.992-6.064-2.001-551.936-2.149-301.4-.083-549.411.187-551.135.6m53.373 124.277c-1.597 1.192-1.689 13.697-1.471 198.772l.233 197.5 40.744.261 40.745.261.255-86.261.256-86.261h154l.256 86.261.255 86.261 40.505-.261 40.504-.261-.015-197.922c-.008-108.856-.148-198.054-.311-198.217-.163-.163-18.273-.341-40.245-.395l-39.949-.099-.256 77.573-.256 77.572-77.244-.256-77.244-.256-.256-77.25-.256-77.25h-37.912c-20.852 0-38.525-.235-39.273-.522-.748-.287-2.127.05-3.065.75m732.01-.535c-1.664.432-1.74 10.504-1.5 198.631l.252 198.176h71.844l-.149-19.377-.148-19.377 11.395 11.588c11.796 11.995 17.529 16.265 30.656 22.835 17.284 8.651 31.484 11.42 53.902 10.511 29.69-1.204 50.898-10.718 72.942-32.724 22.189-22.15 33.402-47.185 39.171-87.456 1.167-8.141 1.502-50.972.474-60.5-2.151-19.938-7.812-40.484-15.292-55.5-11.202-22.489-31.068-42.629-51.748-52.464-33.297-15.834-72.862-15.842-102.287-.022-9.055 4.868-20.243 13.187-26.722 19.869-2.73 2.814-5.43 5.117-6 5.117-.71 0-.955-21.985-.775-69.5l.264-69.5h-35.932c-19.762 0-36.531-.172-37.263-.381-.733-.21-2.121-.177-3.084.074M519.285 907.238c.423 100.464.515 104.664 2.523 115.301 4.44 23.52 10.315 35.671 23.714 49.042 7.928 7.91 10.444 9.734 19.539 14.155 5.741 2.792 14.489 6.343 19.439 7.892 8.676 2.715 9.755 2.816 30 2.807 22.462-.01 25.789-.507 41-6.123 19.652-7.255 36.395-18.644 48.399-32.921 2.493-2.965 4.885-5.391 5.317-5.391.431 0 .784 8.775.784 19.5v19.5h71V948c0-78.65.112-143.337.25-143.75.138-.413-17.187-.868-38.5-1.012l-38.75-.261-.03 67.761c-.045 100.675-1.342 121.469-8.482 135.962-8.448 17.147-28.388 29.758-49.102 31.056-14.194.89-27.935-4.124-36.056-13.156-7.271-8.088-10.6-16.501-11.908-30.1-.37-3.85-.954-48.4-1.298-99l-.624-92-38.827-.262-38.827-.262.439 104.262M980 857.974c-8.864 2.446-12.888 4.305-18.62 8.605-11.855 8.894-17.02 15.624-22.196 28.921-4.604 11.829-6.196 19.277-7.015 32.828-1.564 25.867 1.564 51.102 8.443 68.113 2.809 6.945 11.523 18.696 18.545 25.01C968.165 1029.55 984.499 1036 996 1036c10.069 0 22.165-3.998 30.5-10.08 20.721-15.122 29.672-38.977 29.613-78.92-.057-38.777-7.759-62.291-25.316-77.29-13.85-11.833-33.768-16.434-50.797-11.736" fill="undefined" fill-rule="evenodd"/></svg>