<svg xmlns="http://www.w3.org/2000/svg" width="1240" height="1240"><path d="M6 1.8C6 4.104 4.104 6 1.8 6 .069 6 0 29.519 0 623.001v617.001l620.25-.251 620.25-.251.171-617.5c.095-339.625-.055-616.938-.333-616.25-.641 1.588-3.571 1.617-5.138.05-.66-.66-1.2-2.235-1.2-3.5V0H620C29.407 0 6 .069 6 1.8M.497 623c0 339.625.114 478.563.253 308.75.139-169.812.139-447.687 0-617.5C.611 144.438.497 283.375.497 623M259.75 204.484l-2.75 2.42v20.941c0 18.951.166 21.022 1.75 21.798.962.471 19.927 1.082 42.143 1.357l40.393.5 2.107 2.823 2.107 2.823.5 122.177.5 122.177 30.116.264c27.096.238 30.254.098 31.5-1.403 1.156-1.393 1.466-21.552 1.884-122.264.527-127.164.388-123.629 4.957-126.074 1.209-.647 16.228-1.023 40.87-1.023 34.603 0 39.027-.177 39.566-1.582 1.006-2.621.682-42.091-.368-44.853L494.05 202l-115.775.032-115.775.031-2.75 2.421m612.003 76.547c-14.754 1.121-18.694 1.91-20.982 4.198-1.146 1.146-4.463 2.82-7.37 3.72-3.222.997-6.118 2.693-7.416 4.343-1.172 1.489-2.986 2.708-4.032 2.708-1.097 0-2.551 1.256-3.438 2.97-1.94 3.752-4.952 5.388-8.348 4.536-3.545-.89-4.134-2.067-4.152-8.309-.012-4.27-.551-5.976-2.765-8.75L810.5 283h-44.387l-2.306 3.868-2.307 3.867.5 146.669c.439 128.913.682 146.785 2 147.627.883.563 12.194.857 27.5.713l26-.244.5-49c.526-51.51.712-53.5 5.012-53.5 1.068 0 2.617 1.031 3.443 2.291.826 1.26 3.016 2.839 4.866 3.508 1.851.669 3.857 2.296 4.458 3.615.67 1.471 2.307 2.666 4.231 3.088 1.726.379 4.578 1.954 6.338 3.499 2.111 1.854 4.891 3.06 8.176 3.549 2.737.407 7.799 1.8 11.249 3.095 5.364 2.014 8.087 2.355 18.79 2.355 10.603 0 13.125-.31 16.494-2.029 2.188-1.116 6.332-2.474 9.21-3.017 2.881-.544 7.065-2.3 9.309-3.908 2.242-1.606 5.22-3.208 6.618-3.558 1.397-.351 3.514-1.954 4.703-3.563 1.19-1.609 2.647-2.925 3.238-2.925 1.53 0 17.865-16.181 17.865-17.696 0-.692 1.104-1.981 2.454-2.866 1.57-1.028 3.002-3.494 3.976-6.847.838-2.881 2.379-6.014 3.426-6.96 1.089-.986 2.42-4.359 3.116-7.893.668-3.394 2.41-8.436 3.871-11.205l2.657-5.033v-76l-2.633-5c-1.448-2.75-3.18-7.7-3.848-11-.734-3.623-2.143-6.99-3.558-8.5-1.288-1.375-2.912-4.637-3.609-7.248-.717-2.689-1.974-4.973-2.899-5.267-.898-.285-2.267-1.737-3.043-3.228-.775-1.49-3.601-4.745-6.279-7.233-2.678-2.488-6.278-5.931-8-7.65-1.722-1.72-4.103-3.425-5.292-3.789-1.188-.365-2.841-1.702-3.673-2.973-.89-1.358-3.415-2.842-6.128-3.601-2.538-.711-5.439-2.341-6.447-3.623-1.596-2.028-3.435-2.529-14.182-3.859-13.128-1.625-14.921-1.655-30.156-.498m-295.502.976c-6.526.569-9.039 1.267-12.031 3.341-2.08 1.441-6.225 3.084-9.211 3.65-3.322.63-6.414 1.971-7.969 3.457-1.397 1.334-4.678 2.997-7.29 3.693-2.612.697-4.75 1.838-4.75 2.536 0 .699-1.237 2.066-2.75 3.04-3.652 2.351-12.25 10.912-12.25 12.198 0 .56-1.35 2.016-3 3.236-1.65 1.22-3 2.763-3 3.43 0 .666-1.8 3.607-4 6.535s-4 6.061-4 6.963c0 .901-1.302 3.278-2.894 5.28-1.943 2.445-3.25 5.667-3.979 9.804-.651 3.695-2.195 7.765-3.856 10.162l-2.771 3.998.001 30.171v30.172l2.691 3.913c1.714 2.492 3.126 6.458 3.887 10.914.79 4.632 2.006 7.971 3.594 9.869 1.319 1.578 2.917 4.807 3.55 7.175.742 2.775 1.943 4.666 3.378 5.32 1.224.558 2.535 2.054 2.913 3.325.815 2.741 2.543 4.756 13.048 15.21 4.366 4.345 9.509 8.559 11.429 9.364 1.92.806 4.428 2.476 5.572 3.711 1.272 1.372 3.863 2.513 6.657 2.932 2.517.377 6.534 1.953 8.928 3.501 3.252 2.104 6.544 3.11 13.022 3.981 4.769.64 11.252 2.053 14.407 3.138 8.711 2.998 27.537 2.798 38.658-.41 4.546-1.311 11.557-2.71 15.58-3.108 5.683-.562 7.889-1.256 9.886-3.107 2.331-2.16 7.903-4.381 11.026-4.395.675-.003 1.942-1.097 2.816-2.431.874-1.334 2.797-2.854 4.273-3.377 1.476-.524 3.862-2.02 5.302-3.325 1.439-1.305 5.848-5.073 9.796-8.373 3.948-3.3 8.302-7.913 9.675-10.25 1.372-2.337 2.866-4.25 3.32-4.25.453 0 1.762-2.255 2.907-5.012 1.146-2.757 2.782-5.28 3.637-5.608.855-.328 2.278-3.135 3.164-6.238.885-3.103 2.499-6.614 3.587-7.803 2.031-2.22 4.774-16.467 4.789-24.874.004-2.219.907-6.595 2.007-9.725 2.398-6.823 2.568-14.894.44-20.864-.858-2.407-2.207-10.14-2.997-17.185-1.382-12.33-2.212-15.445-4.978-18.691-.704-.825-1.812-3.503-2.465-5.951-.652-2.447-2.493-6.037-4.093-7.977-1.599-1.94-2.907-4.312-2.907-5.272 0-1.982-2.98-5.474-14.813-17.357-4.573-4.592-9.162-8.618-10.199-8.947-1.037-.329-2.164-1.474-2.503-2.545-.34-1.07-1.826-2.24-3.302-2.599-1.475-.359-4.118-1.898-5.873-3.419-1.94-1.682-5.349-3.214-8.699-3.91-3.031-.629-7.115-2.233-9.077-3.565-2.87-1.947-5.669-2.62-14.301-3.439-11.864-1.125-41.15-1.131-53.982-.012m280.213 44.915c-7.451 1.195-9.118 1.9-10.898 4.617-.886 1.354-2.226 2.461-2.975 2.461-1.47 0-11.591 9.081-11.591 10.4 0 .439-1.31 2.021-2.912 3.517-2.06 1.925-3.117 4.092-3.615 7.413-.387 2.582-1.536 5.752-2.553 7.045-2.985 3.794-3.81 10.024-3.843 28.997-.031 18.354.894 25.833 3.56 28.779.838.926 2.203 4.662 3.033 8.302 1.089 4.775 2.154 7.041 3.825 8.135 1.273.835 2.575 2.554 2.893 3.822.318 1.267 2.723 4.152 5.345 6.411 2.622 2.259 5.985 5.284 7.474 6.722 1.49 1.439 4.865 3.213 7.5 3.943 2.636.73 6.576 2.269 8.754 3.42 5.206 2.752 9.888 2.645 16.025-.366 2.758-1.353 6.947-2.951 9.308-3.55 2.937-.746 4.641-1.85 5.388-3.491.602-1.32 2.382-2.848 3.956-3.397 1.574-.549 2.862-1.494 2.862-2.101s1.526-2.543 3.391-4.302c1.865-1.759 3.961-4.999 4.658-7.199.697-2.2 2.148-5.194 3.226-6.653 3.087-4.183 3.637-9.645 3.657-36.347.02-25.954-.713-32.572-3.991-36.063-1.066-1.134-2.624-4.373-3.463-7.198-1.03-3.47-2.471-5.81-4.442-7.214-1.605-1.142-3.202-2.973-3.55-4.068-.347-1.095-2.316-2.85-4.376-3.901-2.059-1.05-4.389-2.687-5.177-3.638-.788-.95-2.913-2.346-4.721-3.102-4.005-1.674-19.848-2.5-26.748-1.394m-266.155 1.042c-1.755.418-4.566 1.916-6.245 3.329-1.679 1.413-4.068 2.869-5.309 3.236-2.058.609-3.892 2.127-10.531 8.713-5.657 5.613-8.316 9.367-9.323 13.163-1.17 4.41-1.405 4.901-4.328 9.049-2.559 3.632-3.777 19.382-2.941 38.046.633 14.154 1.09 16.222 4.292 19.424.974.974 2.075 3.671 2.447 5.992.421 2.638 1.697 5.226 3.402 6.902 1.5 1.475 3.185 3.582 3.745 4.682.56 1.1 1.993 2.432 3.184 2.959 1.192.527 2.632 1.978 3.199 3.222.567 1.245 2.585 2.913 4.484 3.707 1.9.793 3.939 2.349 4.531 3.456.747 1.394 2.846 2.358 6.831 3.136 3.164.618 8.559 1.794 11.988 2.615 4.291 1.026 6.808 1.185 8.072.508 1.01-.54 4.954-1.51 8.764-2.156 4.596-.779 7.771-1.939 9.429-3.446 1.375-1.25 4.031-3.046 5.902-3.991 4.779-2.414 12.91-10.815 14.766-15.257.858-2.055 2.589-4.959 3.847-6.453 1.403-1.667 2.558-4.762 2.989-8.008.387-2.911 1.332-7.749 2.1-10.752 2.206-8.628 1.762-24.705-1.057-38.253-2.445-11.75-3.852-15.787-5.505-15.787-.488 0-1.379-1.462-1.981-3.25-1.555-4.62-15.665-18.75-18.723-18.75-.951 0-2.94-1.161-4.422-2.58-1.481-1.419-4.43-2.983-6.554-3.476-4.603-1.068-22.536-1.055-27.053.02" fill="undefined" fill-rule="evenodd"/></svg>